PathFileType	4	(X/Y/Z)	26_2_16_p0_0-922_filt_butterworth.trc
DataRate	CameraRate	NumFrames	NumMarkers	Units	OrigDataRate	OrigDataStartFrame	OrigNumFrames
59.0	59.0	6	27	m	59.0	230	922
Frame#	Time	RHip			RKnee			RAnkle			RBigToe			RSmallToe			RHeel			LHip			LKnee			LAnkle			LBigToe			LSmallToe			LHeel			Neck			Head			Nose			RShoulder			RElbow			RWrist			RThumb			RIndex			RPinky			LShoulder			LElbow			LWrist			LThumb			LIndex			LPinky			
		X1	Y1	Z1	X2	Y2	Z2	X3	Y3	Z3	X4	Y4	Z4	X5	Y5	Z5	X6	Y6	Z6	X7	Y7	Z7	X8	Y8	Z8	X9	Y9	Z9	X10	Y10	Z10	X11	Y11	Z11	X12	Y12	Z12	X13	Y13	Z13	X14	Y14	Z14	X15	Y15	Z15	X16	Y16	Z16	X17	Y17	Z17	X18	Y18	Z18	X19	Y19	Z19	X20	Y20	Z20	X21	Y21	Z21	X22	Y22	Z22	X23	Y23	Z23	X24	Y24	Z24	X25	Y25	Z25	X26	Y26	Z26	X27	Y27	Z27	
230	3.8983050847457625	0.3055697935359147	0.7680500461374464	0.8208868847606603	0.2919247722776974	0.9788494763990966	1.2382819704880272	0.2553831696838611	1.261089298724635	1.661903092049413	0.24510028208724227	1.0403951084944456	1.7194702975826075	0.29305188023382106	1.0784687129588604	1.7184721799032558	0.24965023255557778	1.307922625750999	1.6833710398041817	0.07328681060368483	0.7789277472723211	0.8071141911159639	0.10475947915999448	0.9469179661972762	1.227796106952801	0.0704806319778063	1.1857210631185784	1.6417222146381334	0.09056403879759023	1.0556684811238695	1.7146859134472834	0.03732942922727201	1.066697301227511	1.7017547878282007	0.08018734521956661	1.243219276341157	1.6724053454030638	0.20554456277841182	0.4769572248579321	0.3822669719002027	0.2052540538228586	0.25671817081849524	0.19004121192174497	0.20143739424987311	0.28609269705169627	0.3495704360149497	0.3696491563816717	0.4732429404864979	0.4543430341643793	0.42425822030183585	0.6362015121890898	0.6858938222745665	0.4215983542306012	0.7217741614726119	0.9537284907659621	0.3460126192387913	0.756216912650448	1.050586566308798	0.35879250770423377	0.7600857312176293	1.0641059765419871	0.39486468747848114	0.7963512182371835	1.0698924844695423	0.03100850270220163	0.5353281351378569	0.43591005369893165	-0.030316513015332027	0.7053265564973266	0.6427408491489431	-0.06934684888854062	0.745595667086664	0.8915075146279583	-0.0439893072965977	0.7669882814345299	0.9862501539245903	-0.07000092586496416	0.7478757376418967	1.0257632218557955	-0.0950339474540658	0.7530226376107518	1.0038549974818585
231	3.915254237288136	0.30594937224331736	0.7688774520548292	0.820887483006172	0.2919164100067413	0.9788500947872876	1.2382582395484498	0.25537665681157773	1.2610899811296568	1.6619016086347802	0.24505250732145273	1.0403249408918227	1.7193992486007565	0.29295950779240654	1.0781313885532768	1.718089230369826	0.24863276410300886	1.3132751336576152	1.6840022008667346	0.07328330286299004	0.7788606659662299	0.8072003015614657	0.10484833884698212	0.9469580563823197	1.2278047484709975	0.07050516659392667	1.1855698966182946	1.6416991811871042	0.09053781724999263	1.0599215416478853	1.714866847369551	0.037406772873642385	1.0661785772577785	1.7016548645633482	0.08010966844907097	1.2428612855965882	1.6723361139277053	0.2055536906644253	0.4768051331061244	0.38221565736156493	0.2051330354671105	0.2539552426742919	0.19076656136461445	0.19940498143307353	0.2825897152910744	0.35043169409458047	0.36972746779068716	0.4736624196031685	0.4542776538737439	0.4242479728004621	0.6361994765460657	0.6857983751119814	0.420514480790128	0.7221424031366159	0.9547460282917613	0.34597544032143024	0.7561894266412128	1.0505670095862043	0.3587217526462639	0.7599587057302337	1.0639737239867464	0.39481998710831645	0.7949731682061265	1.0698153446127183	0.030606515004744844	0.5354427846130618	0.4357969755549738	-0.03283023698130371	0.7050867218647291	0.6448508154974634	-0.06791371405335259	0.7462938607254113	0.8914288031243673	-0.04016123429235913	0.7706461935619302	0.9864619028834227	-0.06962333944911464	0.7478304508661819	1.0261552744235167	-0.0942192359847836	0.7551073588349742	1.0062557292180099
232	3.9322033898305087	0.3062285380875134	0.7695657161326213	0.8208762112735997	0.2914421138204056	0.9786797825467023	1.238132906178226	0.2553710780570573	1.2611223864604009	1.661924639929922	0.24502898940318676	1.0402990966664545	1.7193489389502625	0.2929309014984599	1.078037202319845	1.7174538862034068	0.24720095844096454	1.3208036392972808	1.684911453904906	0.07327666193840726	0.7787822642389493	0.8073351491918805	0.10464681140402782	0.9473690722138476	1.2278257326905102	0.07052670432823666	1.1854239884443296	1.6416748207382617	0.09040792027604794	1.0654585126476055	1.7152277426598561	0.03759432224010155	1.0655459712258826	1.7016471598543204	0.07996558886464834	1.2425063253173474	1.6722643464310325	0.20554729725206475	0.4766263239997785	0.38226431817927825	0.20500051832473765	0.2530515100819968	0.19060592030179108	0.19766702455376267	0.27986659725425367	0.351193557413259	0.3697758573603673	0.47387607838561063	0.45426153068598235	0.4242456155292128	0.6361999789909386	0.6856927626316798	0.4197521835606489	0.7220922712957383	0.9552379603663884	0.34595836533900165	0.7561807551213762	1.050538172049685	0.3586871997760252	0.7599473733031487	1.0638549668831492	0.39495525294669287	0.7945556416148473	1.0691419583803585	0.029600295603189032	0.5355297009132489	0.4357422004334978	-0.03618393911915035	0.7048698383093599	0.6460411833509213	-0.06674539627256487	0.7466774030996378	0.8913970609048617	-0.037545496643957225	0.7752543963087335	0.9862556512020697	-0.06884186056135945	0.7480116814196239	1.025904456659302	-0.09318069815044187	0.7565906130467965	1.0075710192044687
233	3.9491525423728815	0.3062476085858938	0.7701199851262753	0.8209914932564799	0.29025204728613496	0.9783352752826203	1.2376194272526055	0.2553507646823846	1.2612134437584954	1.6619789515516017	0.24502273225941462	1.040341157260459	1.7192819426331973	0.2929548811440298	1.078062940459271	1.7170016065035596	0.24613577548947907	1.326397199266745	1.685615666196317	0.07326604695936427	0.7786964218615863	0.8073694833002203	0.1039704034696044	0.9494166177043314	1.2275030469196389	0.07053346155942054	1.185357923234071	1.641649713334966	0.08999414160185022	1.0696564817733552	1.715433578305333	0.037654575609540324	1.065530282404353	1.7019972530771428	0.07994772519569218	1.242391796500397	1.6722781233376862	0.20553259621660744	0.47648794606405964	0.3823722573587989	0.20485835916370604	0.25314780880731563	0.19027832998842875	0.1966552713583247	0.2789279391554585	0.35184823209347427	0.3697862323287019	0.4738492270643603	0.4542757230812601	0.42425729204276735	0.6362009370150957	0.6857055526315666	0.41939719117486063	0.721977254268169	0.9553598580422995	0.34595167250637504	0.7562067956696712	1.0504984268456083	0.3586818478403113	0.7600312415856758	1.0637752481097897	0.3950649052192893	0.7944578853049578	1.067971566215197	0.02818664918603127	0.53525108828876	0.43580875478082937	-0.03911933722915446	0.7047471451619138	0.6459838174909699	-0.06625065443489035	0.746852410315736	0.8913944685022206	-0.0361676696557797	0.7784766339034401	0.9861118871329622	-0.06691960144634171	0.7482402044357352	1.0257012565350176	-0.09234871029085345	0.7568807360369812	1.007492914885724
234	3.9661016949152543	0.30613662929573904	0.7705629633274125	0.8214998847615741	0.28874332999042307	0.9780451599553452	1.2365018027854322	0.25531471229292046	1.2613450631579766	1.6620370577475747	0.24504379603736315	1.040549465671508	1.7192228817490671	0.2930058608378975	1.0781931445470019	1.716811529406278	0.24573799367458485	1.3285130386131137	1.6859316168016585	0.07325318818159457	0.7786041013796328	0.8069926983961551	0.10267816980146025	0.954031404271986	1.2265605770083658	0.07052513357199042	1.1853621117263689	1.6416245159771636	0.08966198959024113	1.071317802907939	1.7155517901391828	0.037344723550495604	1.0673286929942425	1.7029246276909906	0.08042641923304333	1.2426514241556297	1.6724160420694298	0.20553408368437834	0.47643184600259425	0.38247717478373006	0.20474804389704537	0.2533411976533373	0.19014467903811855	0.19639176988309304	0.2793889314977936	0.3526981518017661	0.3697941299897423	0.4736438192562493	0.45429598112952346	0.4242876920138835	0.63617926374116	0.686126426387508	0.419322753562105	0.7219230121083535	0.9553395018801497	0.34594153791404353	0.7562906359271375	1.0504657309055918	0.35866089960595876	0.7601809078001818	1.0636934259605961	0.39512116772590666	0.7942043753035737	1.0666329268381554	0.026799675528478353	0.533757980292482	0.43615859677678936	-0.04073502333747866	0.7047030160541392	0.6454462921808827	-0.06622697048539265	0.7469700463028612	0.8913899747426515	-0.03558818976613877	0.778689554288718	0.9860424565414663	-0.06391191043727355	0.7482086207666828	1.025765696792905	-0.09212437589541753	0.75597535294371	1.0062850682487117
235	3.983050847457627	0.3061225198789356	0.7707861433719461	0.8224682608976461	0.2876828120821846	0.9780100613607416	1.2351125313123115	0.2552771181668663	1.2614472950459794	1.6620708672201858	0.24507112870105902	1.0409280829277852	1.719217934994709	0.29296903977010125	1.0782291963217758	1.7168187072929357	0.2457513555218094	1.3285007932317647	1.6860176238361473	0.07324739219539128	0.7785264503628322	0.8059973074946045	0.10106296828917799	0.959892573373345	1.2252848814976594	0.07050935283053426	1.1853670902146782	1.6416014248719961	0.08955037786458771	1.0713837681116387	1.7159230485808623	0.03651988225134216	1.0715253622585086	1.7041472881164035	0.08165616546745814	1.2432974175885518	1.6725796997848807	0.2055805987741401	0.47650836854361345	0.3825258203499205	0.20472492517294805	0.25326311983914634	0.1901835667932879	0.1965202916610099	0.2803476948216037	0.35370819663966924	0.36981312065006455	0.47332175839739754	0.4543076549667072	0.4243246273979021	0.6361062470837681	0.6871350035908859	0.4193743525252871	0.7218804922154654	0.9553682692485455	0.34591377947803326	0.756401934950831	1.0504447097092489	0.35858281201344133	0.7603405067128595	1.063556282415304	0.39506479700586244	0.7934375443919273	1.065615764099895	0.025545786550093805	0.5303736736940571	0.43695594484129624	-0.04115598075401855	0.7047107061465697	0.6450805026315524	-0.06633399206734077	0.747202707032071	0.891356850256372	-0.03540123124627123	0.7764170777447708	0.9858114526907937	-0.061272991841687774	0.7479876613453568	1.0260107968043484	-0.09259000228092441	0.7544969584134039	1.0047102288407188
